<?xml version="1.0" encoding="UTF-8" standalone="no"?>
<!DOCTYPE svg PUBLIC "-//W3C//DTD SVG 1.1//EN"
 "http://www.w3.org/Graphics/SVG/1.1/DTD/svg11.dtd">
<!-- Generated by graphviz version 2.38.0 (20140413.2041)
 -->
<!-- Title: %3 Pages: 1 -->
<svg width="438pt" height="378pt"
 viewBox="0.00 0.00 437.94 378.00" xmlns="http://www.w3.org/2000/svg" xmlns:xlink="http://www.w3.org/1999/xlink">
<g id="graph0" class="graph" transform="scale(1 1) rotate(0) translate(4 374)">
<title>%3</title>
<polygon fill="white" stroke="none" points="-4,4 -4,-374 433.943,-374 433.943,4 -4,4"/>
<!-- Presion arterial -->
<g id="node1" class="node"><title>Presion arterial</title>
<ellipse fill="none" stroke="black" cx="225" cy="-279" rx="64.189" ry="18"/>
<text text-anchor="middle" x="225" y="-275.3" font-family="Times,serif" font-size="14.00">Presion arterial</text>
</g>
<!-- Otras alergia -->
<g id="node3" class="node"><title>Otras alergia</title>
<ellipse fill="none" stroke="black" cx="124" cy="-192" rx="55.7903" ry="18"/>
<text text-anchor="middle" x="124" y="-188.3" font-family="Times,serif" font-size="14.00">Otras alergia</text>
</g>
<!-- Presion arterial&#45;&gt;Otras alergia -->
<g id="edge2" class="edge"><title>Presion arterial&#45;&gt;Otras alergia</title>
<path fill="none" stroke="black" d="M205.526,-261.611C190.058,-248.593 168.249,-230.239 151.079,-215.79"/>
<polygon fill="black" stroke="black" points="152.976,-212.811 143.072,-209.05 148.469,-218.167 152.976,-212.811"/>
<text text-anchor="middle" x="193" y="-231.8" font-family="Times,serif" font-size="14.00">Alta</text>
</g>
<!-- 3290663 -->
<g id="node8" class="node"><title>3290663</title>
<ellipse fill="none" stroke="black" cx="225" cy="-192" rx="27" ry="18"/>
<text text-anchor="middle" x="225" y="-188.3" font-family="Times,serif" font-size="14.00">Si</text>
</g>
<!-- Presion arterial&#45;&gt;3290663 -->
<g id="edge7" class="edge"><title>Presion arterial&#45;&gt;3290663</title>
<path fill="none" stroke="black" d="M225,-260.799C225,-249.163 225,-233.548 225,-220.237"/>
<polygon fill="black" stroke="black" points="228.5,-220.175 225,-210.175 221.5,-220.175 228.5,-220.175"/>
<text text-anchor="middle" x="237.5" y="-231.8" font-family="Times,serif" font-size="14.00">Baja</text>
</g>
<!-- Indice de colesterol -->
<g id="node9" class="node"><title>Indice de colesterol</title>
<ellipse fill="none" stroke="black" cx="350" cy="-192" rx="79.8859" ry="18"/>
<text text-anchor="middle" x="350" y="-188.3" font-family="Times,serif" font-size="14.00">Indice de colesterol</text>
</g>
<!-- Presion arterial&#45;&gt;Indice de colesterol -->
<g id="edge8" class="edge"><title>Presion arterial&#45;&gt;Indice de colesterol</title>
<path fill="none" stroke="black" d="M248.219,-262.211C267.79,-248.903 296.004,-229.717 317.765,-214.92"/>
<polygon fill="black" stroke="black" points="319.754,-217.8 326.055,-209.283 315.817,-212.012 319.754,-217.8"/>
<text text-anchor="middle" x="313" y="-231.8" font-family="Times,serif" font-size="14.00">Media</text>
</g>
<!-- Árbol de Desición ID3 -->
<g id="node2" class="node"><title>Árbol de Desición ID3</title>
<ellipse fill="none" stroke="black" cx="225" cy="-352" rx="91.784" ry="18"/>
<text text-anchor="middle" x="225" y="-348.3" font-family="Times,serif" font-size="14.00">Árbol de Desición ID3</text>
</g>
<!-- Árbol de Desición ID3&#45;&gt;Presion arterial -->
<g id="edge1" class="edge"><title>Árbol de Desición ID3: Por Roides Javier Cruz Lara&#45;&gt;Presion arterial</title>
<path fill="none" stroke="black" d="M225,-333.813C225,-325.789 225,-316.047 225,-307.069"/>
<polygon fill="black" stroke="black" points="228.5,-307.029 225,-297.029 221.5,-307.029 228.5,-307.029"/>
</g>
<!-- 13966603 -->
<g id="node4" class="node"><title>13966603</title>
<ellipse fill="none" stroke="black" cx="27" cy="-105" rx="27" ry="18"/>
<text text-anchor="middle" x="27" y="-101.3" font-family="Times,serif" font-size="14.00">Si</text>
</g>
<!-- Otras alergia&#45;&gt;13966603 -->
<g id="edge3" class="edge"><title>Otras alergia&#45;&gt;13966603</title>
<path fill="none" stroke="black" d="M105.297,-174.611C89.6848,-160.93 67.3461,-141.355 50.5223,-126.612"/>
<polygon fill="black" stroke="black" points="52.5877,-123.769 42.76,-119.81 47.9743,-129.033 52.5877,-123.769"/>
<text text-anchor="middle" x="90.5" y="-144.8" font-family="Times,serif" font-size="14.00">No</text>
</g>
<!-- Alergia a antibioticos -->
<g id="node5" class="node"><title>Alergia a antibioticos</title>
<ellipse fill="none" stroke="black" cx="159" cy="-105" rx="87.1846" ry="18"/>
<text text-anchor="middle" x="159" y="-101.3" font-family="Times,serif" font-size="14.00">Alergia a antibioticos</text>
</g>
<!-- Otras alergia&#45;&gt;Alergia a antibioticos -->
<g id="edge4" class="edge"><title>Otras alergia&#45;&gt;Alergia a antibioticos</title>
<path fill="none" stroke="black" d="M131.083,-173.799C135.969,-161.932 142.559,-145.928 148.109,-132.449"/>
<polygon fill="black" stroke="black" points="151.357,-133.755 151.928,-123.175 144.884,-131.09 151.357,-133.755"/>
<text text-anchor="middle" x="150" y="-144.8" font-family="Times,serif" font-size="14.00">Si</text>
</g>
<!-- 2910423 -->
<g id="node6" class="node"><title>2910423</title>
<ellipse fill="none" stroke="black" cx="123" cy="-18" rx="27" ry="18"/>
<text text-anchor="middle" x="123" y="-14.3" font-family="Times,serif" font-size="14.00">No</text>
</g>
<!-- Alergia a antibioticos&#45;&gt;2910423 -->
<g id="edge5" class="edge"><title>Alergia a antibioticos&#45;&gt;2910423</title>
<path fill="none" stroke="black" d="M151.715,-86.799C146.623,-74.776 139.732,-58.5061 133.977,-44.9181"/>
<polygon fill="black" stroke="black" points="137.152,-43.4401 130.029,-35.597 130.706,-46.1701 137.152,-43.4401"/>
<text text-anchor="middle" x="150" y="-57.8" font-family="Times,serif" font-size="14.00">Si</text>
</g>
<!-- 6407890 -->
<g id="node7" class="node"><title>6407890</title>
<ellipse fill="none" stroke="black" cx="195" cy="-18" rx="27" ry="18"/>
<text text-anchor="middle" x="195" y="-14.3" font-family="Times,serif" font-size="14.00">Si</text>
</g>
<!-- Alergia a antibioticos&#45;&gt;6407890 -->
<g id="edge6" class="edge"><title>Alergia a antibioticos&#45;&gt;6407890</title>
<path fill="none" stroke="black" d="M166.285,-86.799C171.377,-74.776 178.268,-58.5061 184.023,-44.9181"/>
<polygon fill="black" stroke="black" points="187.294,-46.1701 187.971,-35.597 180.848,-43.4401 187.294,-46.1701"/>
<text text-anchor="middle" x="188.5" y="-57.8" font-family="Times,serif" font-size="14.00">No</text>
</g>
<!-- 9216703 -->
<g id="node10" class="node"><title>9216703</title>
<ellipse fill="none" stroke="black" cx="314" cy="-105" rx="27" ry="18"/>
<text text-anchor="middle" x="314" y="-101.3" font-family="Times,serif" font-size="14.00">No</text>
</g>
<!-- Indice de colesterol&#45;&gt;9216703 -->
<g id="edge9" class="edge"><title>Indice de colesterol&#45;&gt;9216703</title>
<path fill="none" stroke="black" d="M342.715,-173.799C337.623,-161.776 330.732,-145.506 324.977,-131.918"/>
<polygon fill="black" stroke="black" points="328.152,-130.44 321.029,-122.597 321.706,-133.17 328.152,-130.44"/>
<text text-anchor="middle" x="347.5" y="-144.8" font-family="Times,serif" font-size="14.00">Alto</text>
</g>
<!-- 13688900 -->
<g id="node11" class="node"><title>13688900</title>
<ellipse fill="none" stroke="black" cx="386" cy="-105" rx="27" ry="18"/>
<text text-anchor="middle" x="386" y="-101.3" font-family="Times,serif" font-size="14.00">Si</text>
</g>
<!-- Indice de colesterol&#45;&gt;13688900 -->
<g id="edge10" class="edge"><title>Indice de colesterol&#45;&gt;13688900</title>
<path fill="none" stroke="black" d="M357.285,-173.799C362.377,-161.776 369.268,-145.506 375.023,-131.918"/>
<polygon fill="black" stroke="black" points="378.294,-133.17 378.971,-122.597 371.848,-130.44 378.294,-133.17"/>
<text text-anchor="middle" x="384" y="-144.8" font-family="Times,serif" font-size="14.00">Bajo</text>
</g>
</g>
</svg>
